Coordinates
version=1
nRows=29
nColumns=18
inDegrees=yes

Units are S.I. units (second, meters, Newtons, ...)
Angles are in degrees.

endheader
time	ground_thorax_rot_x	ground_thorax_rot_y	ground_thorax_rot_z	ground_thorax_tx	ground_thorax_ty	ground_thorax_tz	clav_prot	clav_elev	scapula_abduction	scapula_elevation	scapula_upward_rot	scapula_winging	plane_elv	shoulder_elv	axial_rot	elbow_flexion	pro_sup
      0.00000000	      1.65234206	     -5.99947289	     -9.68290312	     -0.00423131	      0.00403036	     -0.00078352	    -18.91151996	     -4.09409754	     -6.39233172	     -3.55828836	     12.59989068	      5.07703811	    -27.42369426	     15.51948142	     57.70652929	      0.00000000	     34.32000000
      0.01000000	      1.62810898	     -6.03578814	     -9.69821433	     -0.00423131	      0.00403036	     -0.00078352	    -18.79918596	     -4.24043219	     -6.38813307	     -3.55836161	     12.20208428	      5.20501516	    -25.04598218	     16.69126597	     46.95238439	      0.00000000	     34.32000000
      0.02000000	      1.69555062	     -6.08520172	     -9.78024877	     -0.00423131	      0.00403036	     -0.00078352	    -18.75767761	     -4.27924555	     -6.33930509	     -3.57040110	     12.14356508	      5.22465552	    -24.34759181	     16.91464019	     45.65010403	      0.00000000	     34.32000000
      0.03000000	      1.64427959	     -6.09709400	     -9.67275294	     -0.00423131	      0.00403036	     -0.00078352	    -18.77261653	     -4.21776290	     -6.22414301	     -3.59695874	     12.41656587	      5.13862229	    -26.21601998	     16.36050449	     50.78332084	      0.00000000	     34.32000000
      0.04000000	      1.67571913	     -6.09189007	     -9.66777705	     -0.00423131	      0.00403036	     -0.00078352	    -18.77100859	     -4.23069026	     -6.22177507	     -3.60511922	     12.41041849	      5.14401977	    -26.21710918	     16.35680777	     50.78404195	      0.00000000	     34.32000000
      0.05000000	      1.65886053	     -6.04889075	     -9.71323021	     -0.00423131	      0.00403036	     -0.00078352	    -18.81776553	     -4.26031212	     -6.25553350	     -3.64952614	     12.48231432	      5.14198417	    -26.60828241	     16.17018459	     52.27203399	      0.00000000	     34.32000000
      0.06000000	      1.46785572	     -5.90599055	     -9.69941356	     -0.00423131	      0.00403036	     -0.00078352	    -18.84475298	     -4.52056965	     -6.40802538	     -3.77269311	     12.18968644	      5.29919942	    -26.09404734	     16.67410146	     47.71667063	      0.00000000	     34.32000000
      0.07000000	      1.58625227	     -5.92731709	     -9.68549404	     -0.00423131	      0.00403036	     -0.00078352	    -18.81862804	     -4.41700766	     -6.40394148	     -3.68369363	     12.15956531	      5.27167220	    -25.12835134	     17.01391503	     44.62439476	      0.00000000	     34.32000000
      0.08000000	      1.63870136	     -5.92018492	     -9.71900793	     -0.00423131	      0.00403036	     -0.00078352	    -18.83245813	     -4.40171956	     -6.43389519	     -3.67177227	     12.15603660	      5.26965650	    -24.95918519	     16.96705636	     44.53132331	      0.00000000	     34.32000000
      0.09000000	      1.48518630	     -5.91289338	     -9.69149402	     -0.00423131	      0.00403036	     -0.00078352	    -18.84045374	     -4.50166843	     -6.43308484	     -3.74478414	     12.14039527	      5.30525743	    -25.66136770	     16.85356474	     45.72138346	      0.00000000	     34.32000000
      0.10000000	      1.64537679	     -5.78658551	     -9.64666484	     -0.00423131	      0.00403036	     -0.00078352	    -19.04966738	     -4.21265352	     -6.74171252	     -3.59344555	     12.36277295	      5.19368987	    -26.06269606	     16.17147156	     51.76473598	      0.00000000	     34.32000000
      0.11000000	      1.50627938	     -5.76670768	     -9.83329636	     -0.00423131	      0.00403036	     -0.00078352	    -19.08859551	     -4.51048163	     -6.85235058	     -3.77115359	     12.16358418	      5.33990765	    -24.64849354	     16.78962955	     44.58952938	      0.00000000	     34.32000000
      0.12000000	      1.54442097	     -5.79290391	     -9.82887151	     -0.00423131	      0.00403036	     -0.00078352	    -19.08746012	     -4.50417052	     -6.86035348	     -3.76217602	     12.14864968	      5.34187489	    -24.65844099	     16.81233432	     44.60587749	      0.00000000	     34.32000000
      0.13000000	      1.61268363	     -5.96051074	     -9.71477449	     -0.00423131	      0.00403036	     -0.00078352	    -18.87474144	     -4.35289594	     -6.44641212	     -3.67083380	     12.28439463	      5.22895777	    -25.34694499	     16.90147891	     44.44813588	      0.00000000	     34.32000000
      0.14000000	      1.47710146	     -5.85769473	     -9.67894551	     -0.00423131	      0.00403036	     -0.00078352	    -18.90847030	     -4.46778118	     -6.55977496	     -3.72262161	     12.14125584	      5.30536525	    -25.54795382	     16.98049770	     44.20670991	      0.00000000	     34.32000000
      0.15000000	      1.62309206	     -5.82014722	     -9.64950630	     -0.00423131	      0.00403036	     -0.00078352	    -18.89739852	     -4.28346536	     -6.45887733	     -3.63934530	     12.36140691	      5.19215414	    -26.11388703	     16.54413414	     48.14447324	      0.00000000	     34.32000000
      0.16000000	      1.61671755	     -5.81082443	     -9.67747607	     -0.00423131	      0.00403036	     -0.00078352	    -18.87588889	     -4.26399983	     -6.45571999	     -3.60909121	     12.30857921	      5.19600338	    -25.55376533	     16.56515681	     47.47058378	      0.00000000	     34.32000000
      0.17000000	      1.63740832	     -5.84749648	     -9.67906287	     -0.00423131	      0.00403036	     -0.00078352	    -18.88668306	     -4.27093860	     -6.46970837	     -3.61660350	     12.31458624	      5.19861394	    -25.55451168	     16.61417929	     47.48471093	      0.00000000	     34.32000000
      0.18000000	      1.84992094	     -5.96409361	     -9.57848369	     -0.00423131	      0.00403036	     -0.00078352	    -18.73657720	     -4.05724875	     -6.36182391	     -3.39597950	     12.13296113	      5.15873882	    -24.19642433	     17.19701425	     45.01136902	      0.00000000	     34.32000000
      0.19000000	      1.59870082	     -5.84196588	     -9.74837101	     -0.00423131	      0.00403036	     -0.00078352	    -18.89899323	     -4.31153441	     -6.54811949	     -3.61728376	     12.19803601	      5.24239967	    -24.87019950	     16.90909107	     44.50227423	      0.00000000	     34.32000000
      0.20000000	      1.51912305	     -5.78749861	     -9.65821052	     -0.00423131	      0.00403036	     -0.00078352	    -18.85388897	     -4.35698771	     -6.62537107	     -3.57110842	     11.90431751	      5.32389428	    -24.39182833	     17.15403782	     43.41008350	      0.00000000	     34.32000000
      0.21000000	      1.53009522	     -5.72927311	     -9.74392838	     -0.00423131	      0.00403036	     -0.00078352	    -18.89471289	     -4.38079092	     -6.62059099	     -3.62484942	     12.02842309	      5.30559681	    -24.49795035	     17.17443435	     41.65908726	      0.00000000	     34.32000000
      0.22000000	      1.46146875	     -5.66331878	     -9.79578845	     -0.00423131	      0.00403036	     -0.00078352	    -19.00960061	     -4.52508717	     -6.74943063	     -3.75974871	     12.09515194	      5.34975139	    -24.84231867	     17.11441559	     41.48890688	      0.00000000	     34.32000000
      0.23000000	      1.54903665	     -5.71592904	     -9.77250039	     -0.00423131	      0.00403036	     -0.00078352	    -18.98746127	     -4.53562590	     -6.70324993	     -3.76902934	     12.10400182	      5.34769246	    -24.82414291	     17.26973089	     41.58185761	      0.00000000	     34.32000000
      0.24000000	      1.54525278	     -6.03509027	     -9.71460614	     -0.00423131	      0.00403036	     -0.00078352	    -18.69356463	     -4.46495671	     -6.07235850	     -3.76119852	     12.33684995	      5.22085304	    -25.89457313	     17.09460896	     43.81710046	      0.00000000	     34.32000000
      0.25000000	      1.57471387	     -6.02049567	     -9.70685136	     -0.00423131	      0.00403036	     -0.00078352	    -18.70188849	     -4.44315407	     -6.07224596	     -3.75414784	     12.37155150	      5.20676620	    -26.27418697	     16.91932610	     46.51802806	      0.00000000	     34.32000000
      0.26000000	      1.54232175	     -6.03835522	     -9.73407229	     -0.00423131	      0.00403036	     -0.00078352	    -18.62284627	     -4.50036413	     -6.04953386	     -3.73344551	     12.14505953	      5.26877707	    -25.47828666	     17.26814779	     44.25804221	      0.00000000	     34.32000000
      0.27000000	      1.53557664	     -5.83603446	     -9.62707952	     -0.00423131	      0.00403036	     -0.00078352	    -18.76012178	     -4.43539928	     -6.36510007	     -3.66283722	     12.04034955	      5.29795692	    -25.22169479	     17.36232086	     43.48019014	      0.00000000	     34.32000000
      0.28000000	      1.71315059	     -5.91631029	     -9.57632023	     -0.00423131	      0.00403036	     -0.00078352	    -18.74424586	     -4.16464015	     -6.32638975	     -3.48965776	     12.17338173	      5.18134334	    -24.45844971	     17.51337597	     41.17217332	      0.00000000	     34.32000000
